<?xml version="1.0" encoding="utf-8"?>
<!-- Generator: Adobe Illustrator 26.2.1, SVG Export Plug-In . SVG Version: 6.00 Build 0)  -->
<svg version="1.1" id="Layer_1" xmlns="http://www.w3.org/2000/svg" xmlns:xlink="http://www.w3.org/1999/xlink" x="0px" y="0px"
	 viewBox="0 0 212.6 69.8" style="enable-background:new 0 0 212.6 69.8;" xml:space="preserve">
<style type="text/css">
	.st0{fill:#265FA4;}
	.st1{fill:#10121A;}
	.st2{fill:#D2E1EA;}
	.st3{fill:#1A1E4B;}
	.st4{fill:#4283C3;}
</style>
<g>
	<g>
		<g>
			<circle class="st0" cx="165.5" cy="34.9" r="34.4"/>
		</g>
		<g>
			<path class="st1" d="M165.5,69.8c-19.2,0-34.9-15.7-34.9-34.9S146.3,0,165.5,0s34.9,15.7,34.9,34.9S184.8,69.8,165.5,69.8z
				 M165.5,1c-18.7,0-33.9,15.2-33.9,33.9s15.2,33.9,33.9,33.9s33.9-15.2,33.9-33.9S184.2,1,165.5,1z"/>
		</g>
	</g>
	<g>
		<g>
			<path class="st2" d="M0,65V16.3h18.6V19H2.8v20h13.6v2.6H2.8v20.7h16V65H0z"/>
		</g>
	</g>
	<g>
		<g>
			<path class="st2" d="M44.3,65H26.6V16.3h2.8v46h14.9V65z"/>
		</g>
	</g>
	<g>
		<g>
			<path class="st2" d="M50.7,65V16.3h18.6V19H53.5v20h13.6v2.6H53.5v20.7h16V65H50.7z"/>
		</g>
	</g>
	<g>
		<g>
			<path class="st2" d="M88,65h-2.9L74.3,16.3h2.9l9.4,43.2L96,16.3h2.8L88,65z"/>
		</g>
	</g>
	<g>
		<g>
			<path class="st2" d="M120,52.1h-14L103,65h-2.8l11.3-48.7h2.9L125.8,65h-2.9L120,52.1z M119.4,49.4l-6.4-28l-6.4,28H119.4z"/>
		</g>
	</g>
	<g>
		<g>
			<path class="st2" d="M147.2,19h-9.4v46h-2.8V19h-9.4v-2.6h21.6V19z"/>
		</g>
	</g>
	<g>
		<g>
			<path class="st2" d="M0,65V16.3h18.6V19H2.8v20h13.6v2.6H2.8v20.7h16V65H0z"/>
		</g>
	</g>
	<g>
		<g>
			<path class="st2" d="M44.3,65H26.6V16.3h2.8v46h14.9V65z"/>
		</g>
	</g>
	<g>
		<g>
			<path class="st2" d="M50.7,65V16.3h18.6V19H53.5v20h13.6v2.6H53.5v20.7h16V65H50.7z"/>
		</g>
	</g>
	<g>
		<g>
			<path class="st2" d="M88,65h-2.9L74.3,16.3h2.9l9.4,43.2L96,16.3h2.8L88,65z"/>
		</g>
	</g>
	<g>
		<g>
			<path class="st2" d="M120,52.1h-14L103,65h-2.8l11.3-48.7h2.9L125.8,65h-2.9L120,52.1z M119.4,49.4l-6.4-28l-6.4,28H119.4z"/>
		</g>
	</g>
	<g>
		<g>
			<circle class="st0" cx="165.5" cy="34.9" r="28.4"/>
		</g>
		<g>
			<path class="st1" d="M165.5,63.8c-16,0-28.9-13-28.9-28.9S149.6,6,165.5,6s28.9,13,28.9,28.9S181.5,63.8,165.5,63.8z M165.5,7
				c-15.4,0-27.9,12.5-27.9,27.9c0,15.4,12.5,27.9,27.9,27.9s27.9-12.5,27.9-27.9C193.5,19.5,180.9,7,165.5,7z"/>
		</g>
	</g>
	<g>
		<circle class="st3" cx="165.5" cy="34.9" r="25.5"/>
	</g>
	<g>
		<path class="st4" d="M153.1,34.6c0-9.2,4.6-15.2,12.4-15.2c8.2,0,12.4,5.9,12.4,15.2c0,9.2-4.7,15.2-12.3,15.2
			C157.8,49.8,153.1,43.8,153.1,34.6z M168.1,34.6c0-8.4-0.3-11.4-2.6-11.4c-2.2,0-2.6,2.5-2.6,11.4s0.5,11.4,2.7,11.4
			C167.7,46,168.1,43.4,168.1,34.6z"/>
	</g>
	<g>
		<g>
			<path class="st2" d="M209.6,65l-8.5-21.3h-1h-8.4V65h-2.8V16.3h11.2c7.4,0,10.8,3.6,10.8,10.3v6.7c0,5.4-2.2,8.8-7,9.9l8.6,21.8
				H209.6z M208.2,32.1v-4.2c0-6.3-2.2-8.9-8.3-8.9h-8.1v22h8.1C205.9,41,208.2,38.4,208.2,32.1z"/>
		</g>
	</g>
	<g>
		<g>
			<path class="st2" d="M147.2,19h-9.4v46h-2.8V19h-9.4v-2.6h21.6V19z"/>
		</g>
	</g>
</g>
</svg>
