<?xml version="1.0" encoding="utf-8"?>
<!-- Generator: Adobe Illustrator 26.2.1, SVG Export Plug-In . SVG Version: 6.00 Build 0)  -->
<svg version="1.1" id="Layer_1" xmlns="http://www.w3.org/2000/svg" xmlns:xlink="http://www.w3.org/1999/xlink" x="0px" y="0px"
	 viewBox="0 0 782.2 501.2" style="enable-background:new 0 0 782.2 501.2;" xml:space="preserve">
<style type="text/css">
	.st0{fill:#1A1E4B;enable-background:new    ;}
	.st1{fill:url(#SVGID_1_);}
	.st2{fill:#2A5FA2;}
	.st3{fill:#D2E1EA;}
	.st4{fill:url(#SVGID_00000030456252013685727210000018417535494678684349_);}
</style>
<rect class="st0" width="782.2" height="501.2"/>
<linearGradient id="SVGID_1_" gradientUnits="userSpaceOnUse" x1="188.2375" y1="214.8798" x2="188.2375" y2="216.8798" gradientTransform="matrix(1 0 0 -1 0 504)">
	<stop  offset="0" style="stop-color:#1A1E4B;stop-opacity:0.2"/>
	<stop  offset="1" style="stop-color:#10172E;stop-opacity:0.1"/>
</linearGradient>
<path class="st1" d="M188.2,289.1c1.3,0,1.3-2,0-2C187,287.1,187,289.1,188.2,289.1L188.2,289.1z"/>
<path class="st2" d="M201.3,283.2c1.3,0,1.3-2,0-2S200,283.2,201.3,283.2L201.3,283.2z"/>
<path class="st3" d="M365.8,276c1.3,0,1.3-2,0-2S364.5,276,365.8,276L365.8,276z"/>
<path class="st3" d="M240.5,147c1.3,0,1.3-2,0-2C239.3,145,239.3,147,240.5,147L240.5,147z"/>
<path class="st3" d="M470.4,125.9c1.3,0,1.3-2,0-2S469.1,125.9,470.4,125.9L470.4,125.9z"/>
<path class="st3" d="M555.6,209.4c1.3,0,1.3-2,0-2S554.3,209.4,555.6,209.4L555.6,209.4z"/>
<path class="st3" d="M540.4,370.1c1.3,0,1.3-2,0-2C539.1,368.1,539.1,370.1,540.4,370.1L540.4,370.1z"/>
<path class="st3" d="M210.2,404.7c1.3,0,1.3-2,0-2S208.9,404.7,210.2,404.7L210.2,404.7z"/>
<path class="st3" d="M120.8,203.5c1.3,0,1.3-2,0-2S119.5,203.5,120.8,203.5L120.8,203.5z"/>
<path class="st3" d="M141.4,396.7c1.3,0,1.3-2,0-2C140.2,394.7,140.1,396.7,141.4,396.7L141.4,396.7z"/>
<path class="st3" d="M387.3,183.7c1.3,0,1.3-2,0-2S386,183.7,387.3,183.7L387.3,183.7z"/>
<path class="st3" d="M449.3,369.2c1.3,0,1.3-2,0-2S448,369.2,449.3,369.2L449.3,369.2z"/>
<path class="st3" d="M559.8,145.3c1.3,0,1.3-2,0-2S558.5,145.3,559.8,145.3L559.8,145.3z"/>
<path class="st3" d="M255.7,312.7c1.3,0,1.3-2,0-2S254.4,312.7,255.7,312.7L255.7,312.7z"/>
<path class="st3" d="M340.5,443.9c1.3,0,1.3-2,0-2S339.2,443.9,340.5,443.9L340.5,443.9z"/>
<path class="st3" d="M461.5,443c1.3,0,1.3-2,0-2S460.2,443,461.5,443L461.5,443z"/>
<path class="st3" d="M565.7,452.3c1.3,0,1.3-2,0-2S564.4,452.3,565.7,452.3L565.7,452.3z"/>
<path class="st3" d="M506.6,241.9c1.3,0,1.3-2,0-2C505.4,239.9,505.3,241.9,506.6,241.9L506.6,241.9z"/>
<path class="st3" d="M255.7,220c1.3,0,1.3-2,0-2S254.4,220,255.7,220L255.7,220z"/>
<path class="st3" d="M134.3,319.1c1.3,0,1.3-2,0-2S133,319.1,134.3,319.1L134.3,319.1z"/>
<path class="st3" d="M128.8,450.2c1.3,0,1.3-2,0-2S127.5,450.2,128.8,450.2L128.8,450.2z"/>
<path class="st3" d="M327.4,411.4c1.3,0,1.3-2,0-2S326.1,411.4,327.4,411.4L327.4,411.4z"/>
<path class="st3" d="M356.5,317c1.3,0,1.3-2,0-2S355.2,317,356.5,317L356.5,317z"/>
<linearGradient id="SVGID_00000077311147561254871710000013002993858595058342_" gradientUnits="userSpaceOnUse" x1="236.9" y1="296.1036" x2="236.9" y2="298.1036" gradientTransform="matrix(1 0 0 -1 0 504)">
	<stop  offset="0" style="stop-color:#1A1E4B;stop-opacity:0.2"/>
	<stop  offset="1" style="stop-color:#10172E;stop-opacity:0.1"/>
</linearGradient>
<path style="fill:url(#SVGID_00000077311147561254871710000013002993858595058342_);" d="M236.9,207.9c1.3,0,1.3-2,0-2
	C235.6,205.9,235.6,207.9,236.9,207.9L236.9,207.9z"/>
<path class="st2" d="M249.9,202c1.3,0,1.3-2,0-2C248.7,200,248.7,202,249.9,202L249.9,202z"/>
<path class="st3" d="M414.4,194.8c1.3,0,1.3-2,0-2S413.1,194.8,414.4,194.8L414.4,194.8z"/>
<path class="st3" d="M289.2,65.8c1.3,0,1.3-2,0-2C287.9,63.8,287.9,65.8,289.2,65.8L289.2,65.8z"/>
<path class="st3" d="M519,44.7c1.3,0,1.3-2,0-2S517.7,44.7,519,44.7L519,44.7z"/>
<path class="st3" d="M604.2,128.2c1.3,0,1.3-2,0-2S602.9,128.2,604.2,128.2L604.2,128.2z"/>
<path class="st3" d="M589,288.9c1.3,0,1.3-2,0-2S587.7,288.9,589,288.9L589,288.9z"/>
<path class="st3" d="M190.1,315.4c1.3,0,1.3-2,0-2S188.8,315.4,190.1,315.4L190.1,315.4z"/>
<path class="st3" d="M435.9,102.5c1.3,0,1.3-2,0-2S434.6,102.5,435.9,102.5L435.9,102.5z"/>
<path class="st3" d="M497.9,288c1.3,0,1.3-2,0-2S496.6,288,497.9,288L497.9,288z"/>
<path class="st3" d="M608.4,64.1c1.3,0,1.3-2,0-2C607.1,62.1,607.1,64.1,608.4,64.1L608.4,64.1z"/>
<path class="st3" d="M304.3,231.5c1.3,0,1.3-2,0-2C303.1,229.5,303.1,231.5,304.3,231.5L304.3,231.5z"/>
<path class="st3" d="M555.3,160.7c1.3,0,1.3-2,0-2S554,160.7,555.3,160.7L555.3,160.7z"/>
<path class="st3" d="M304.3,138.7c1.3,0,1.3-2,0-2C303.1,136.7,303.1,138.7,304.3,138.7L304.3,138.7z"/>
<path class="st3" d="M405.1,235.7c1.3,0,1.3-2,0-2C403.8,233.7,403.8,235.7,405.1,235.7L405.1,235.7z"/>
</svg>
